<?xml version="1.0" standalone="no"?>
<!DOCTYPE svg PUBLIC "-//W3C//DTD SVG 20010904//EN"
 "http://www.w3.org/TR/2001/REC-SVG-20010904/DTD/svg10.dtd">
<svg version="1.0" xmlns="http://www.w3.org/2000/svg"
 width="300.000000pt" height="75.000000pt" viewBox="0 0 300.000000 75.000000"
 preserveAspectRatio="xMidYMid meet">
<metadata>
Created by potrace 1.10, written by Peter Selinger 2001-2011
</metadata>
<g transform="translate(0.000000,75.000000) scale(0.100000,-0.100000)"
fill="#000000" stroke="none">
<path d="M410 635 c0 -58 -2 -66 -17 -63 -14 2 -19 15 -21 62 -3 57 -3 58 -30
51 -125 -31 -215 -144 -216 -273 l-1 -64 72 -3 c122 -5 255 -86 284 -172 6
-18 17 -33 26 -33 12 0 13 6 7 28 -5 15 -9 56 -8 92 0 90 36 162 116 235 l62
55 -56 54 c-53 52 -97 73 -185 91 l-33 7 0 -67z m154 -24 c65 -47 67 -54 18
-102 -46 -46 -112 -167 -112 -205 0 -32 -9 -30 -70 11 -58 39 -135 65 -192 65
-49 0 -61 25 -41 83 28 82 68 134 125 163 28 15 29 14 47 -30 23 -53 54 -68
83 -39 19 19 26 38 27 77 1 16 6 18 38 13 20 -4 55 -20 77 -36z"/>
<path d="M1070 520 c0 -13 7 -20 20 -20 13 0 20 7 20 20 0 13 -7 20 -20 20
-13 0 -20 -7 -20 -20z"/>
<path d="M1165 380 c0 -153 1 -160 20 -160 19 0 20 7 20 160 0 153 -1 160 -20
160 -19 0 -20 -7 -20 -160z"/>
<path d="M1510 380 c0 -136 2 -160 15 -160 8 0 15 7 15 15 0 8 3 15 6 15 3 0
12 -7 20 -15 24 -24 81 -19 109 10 22 21 25 33 25 95 0 62 -3 74 -25 95 -30
31 -73 32 -108 5 l-25 -20 5 60 c5 56 4 60 -16 60 -21 0 -21 -3 -21 -160z
m134 34 c19 -18 22 -114 6 -145 -13 -23 -62 -26 -84 -3 -22 22 -22 121 1 146
20 22 56 23 77 2z"/>
<path d="M780 376 l0 -156 75 0 c42 0 90 6 109 14 60 25 68 112 13 137 l-24
11 23 24 c31 30 30 64 0 93 -20 19 -39 24 -110 28 l-86 6 0 -157z m164 98 c19
-18 20 -28 6 -55 -9 -15 -22 -19 -70 -19 l-60 0 0 45 0 45 54 0 c36 0 60 -5
70 -16z m14 -126 c6 -6 12 -23 12 -38 0 -38 -15 -47 -87 -52 l-63 -4 0 56 0
56 63 -4 c34 -2 68 -9 75 -14z"/>
<path d="M2000 375 l0 -155 75 0 c44 0 90 6 110 15 62 25 71 101 16 133 l-29
16 24 19 c27 21 32 63 11 91 -16 21 -74 35 -149 36 l-58 0 0 -155z m173 93 c8
-12 7 -24 -1 -42 -11 -24 -17 -26 -72 -26 l-60 0 0 45 0 46 61 -3 c45 -2 65
-8 72 -20z m10 -130 c9 -11 17 -24 17 -28 0 -4 -8 -17 -17 -28 -14 -16 -32
-22 -78 -24 l-60 -2 -3 43 c-5 65 -2 68 65 64 42 -4 63 -10 76 -25z"/>
<path d="M2518 483 c-2 -16 -8 -27 -15 -25 -7 1 -13 -5 -13 -13 0 -8 5 -15 10
-15 6 0 10 -35 10 -86 0 -104 9 -124 55 -124 40 0 50 26 13 32 -22 3 -23 8
-26 91 l-3 87 26 0 c17 0 25 5 22 13 -2 6 -14 11 -26 10 -17 -2 -21 3 -21 27
0 39 -27 41 -32 3z"/>
<path d="M1070 340 c0 -113 1 -120 20 -120 19 0 20 7 20 120 0 113 -1 120 -20
120 -19 0 -20 -7 -20 -120z"/>
<path d="M1305 448 c-31 -18 -43 -39 -51 -85 -7 -51 10 -107 39 -128 25 -17
89 -20 118 -5 68 37 63 194 -7 220 -33 13 -74 12 -99 -2z m95 -33 c7 -9 15
-38 18 -65 6 -66 -15 -100 -62 -100 -38 0 -51 12 -61 58 -8 39 1 87 22 107 19
19 67 19 83 0z"/>
<path d="M1775 435 c-14 -13 -25 -29 -25 -35 0 -18 39 -11 50 11 16 29 70 23
87 -10 17 -35 9 -41 -48 -41 -40 0 -55 -5 -74 -25 -70 -69 30 -156 108 -95 25
20 25 20 30 0 4 -15 14 -20 36 -20 35 0 43 24 11 33 -18 5 -20 14 -20 85 0 75
-2 82 -26 101 -38 30 -98 28 -129 -4z m117 -125 c-4 -33 -37 -60 -73 -60 -22
0 -30 6 -35 24 -3 14 -3 30 1 36 11 17 47 29 80 27 26 -2 30 -6 27 -27z"/>
<path d="M2260 458 c0 -2 20 -52 45 -113 25 -60 45 -117 45 -126 0 -20 -41
-59 -63 -59 -9 0 -17 -7 -17 -15 0 -24 53 -18 79 9 17 18 131 283 131 304 0 2
-10 2 -22 0 -17 -2 -27 -20 -54 -98 -17 -52 -34 -88 -37 -80 -53 150 -65 175
-86 178 -11 2 -21 2 -21 0z"/>
<path d="M2669 445 c-46 -25 -62 -105 -35 -170 17 -40 42 -55 94 -55 38 0 92
30 92 51 0 15 -36 10 -50 -6 -19 -23 -76 -19 -94 7 -9 12 -16 30 -16 40 0 16
10 18 86 18 l86 0 -7 36 c-3 20 -11 45 -18 55 -24 38 -90 50 -138 24z m93 -27
c9 -7 19 -23 23 -35 6 -22 4 -23 -59 -23 -73 0 -84 12 -46 50 23 23 59 26 82
8z"/>
</g>
</svg>
