
        <svg xmlns="http://www.w3.org/2000/svg" xmlns:xlink="http://www.w3.org/1999/xlink" version="1.1" width="3300" height="1480.9413247689952" viewBox="0 0 3300 1480.9413247689952">
			
			<g transform="scale(15) translate(10, 10)">
				<defs id="SvgjsDefs1558"/><g id="SvgjsG1559" featureKey="nameFeature-0" transform="matrix(2.8070173263549805,0,0,2.8070173263549805,-1.260968290794154,-33.551857015845904)" fill="#fff"><path d="M0.44922 12.07 l5.5469 0 l0 11.133 l5.5859 0 l0 -11.133 l4.6875 0 l0 15.859 l-1.9336 0 l0 0.70313 l1.9336 0 l0 11.367 l-4.6094 0 c-0.05209 0 -0.078125 -0.032559 -0.078125 -0.097656 l0 -12.051 l-5.5859 0 l0 12.051 c0 0.065098 -0.032559 0.097656 -0.097656 0.097656 l-4.6484 0 l0 -14.551 l-0.80078 0 l0 -13.379 z M16.27 27.93 l2.4805 0 l0 0.70313 l-2.4805 0 l0 -0.70313 z M28.203106249999998 12.09 c3.099 0 5.1758 0.99611 6.2305 2.9883 c0.72916 1.5104 1.0938 2.9883 1.0938 4.4336 l-0.039063 0 c-2.1225 0.18229 -3.5742 0.27344 -4.3555 0.27344 c0 -1.0287 -0.319 -1.8945 -0.95703 -2.5977 c-0.59896 -0.33854 -1.1523 -0.50781 -1.6602 -0.50781 l-0.78125 0 c-1.3281 0 -2.1354 0.51432 -2.4219 1.543 c-0.065098 0.29947 -0.097656 0.53385 -0.097656 0.70313 l0 0.41016 c0 1.4583 0.76822 2.5131 2.3047 3.1641 c0.13021 0.11719 1.1979 0.60547 3.2031 1.4648 c1.0677 0.49479 2.0572 1.1068 2.9688 1.8359 l0 0.039063 l-4.9023 0 l0 0.54688 l6.4648 0 l0 0.78125 l0.82031 0 l0 8.4766 l-1.6016 0 l0 4.3555 l-12.422 0 l0 -4.3555 l-2.9297 0 l0 -2.9297 l1.6602 0 l0 -1.0156 l-1.6602 0 l0 -0.68359 l5.6836 0 l0 4.6289 l5.8203 0 l0 -6.9727 l-4.3555 0 l0 -2.2852 l-5.4102 0 l0 -0.54688 l2.6172 0 l0 -0.039063 c-2.2916 -1.5234 -3.4375 -3.6783 -3.4375 -6.4648 l0 -0.37109 c0 -2.3307 0.71615 -4.1016 2.1484 -5.3125 c1.3021 -1.0417 3.3072 -1.5625 6.0156 -1.5625 z M35.25440625 25.84 l1.9727 0 l0 0.54688 l-1.9727 0 l0 -0.54688 z M17.24600625 31.699199999999998 l1.875 0 l0 1.0156 l-1.875 0 l0 -1.0156 z M37.51953125 11.953 l5.5664 0 l0 11.504 l-1.0938 0 l0 11.875 l8.3008 0 l0 2.5 l-1.6406 0 l0 0.56641 l1.6406 0 l0 1.6016 l-5.3711 0 l0 -0.42969 l-7.3633 0 c-0.026035 -0.3125 -0.039063 -0.54688 -0.039063 -0.70313 l0 -6.2695 l1.4063 0 l0 -0.83984 l-1.4063 0 l0 -19.805 z M50.292531249999996 37.832 l2.0313 0 l0 0.56641 l-2.0313 0 l0 -0.56641 z M52.40234375 11.992 l5.9375 0 c0.039063 0.32553 0.78775 3.9648 2.2461 10.918 l1.2305 0 l0 1.0742 l-1.4844 0 l0 -1.0742 l-2.0898 0 l0 1.0742 l2.0898 0 l0 5.0195 l0.66406 0 l0 2.5977 l1.6406 0 l0 -3.8281 l0.625 0 l0 -3.7891 l1.1719 0 l0 -1.0742 l-0.91797 0 c1.4583 -6.9531 2.207 -10.592 2.2461 -10.918 l5.9375 0 c-2.1484 9.349 -3.2227 14.115 -3.2227 14.297 l0 4.8633 l-1.6406 0 l0 0.95703 l1.2305 0 l0 2.8711 l-2.207 0 l0 5.0195 l-6.9531 0 c-0.065098 0 -0.25391 -0.71615 -0.56641 -2.1484 l1.7969 0 l0 -1.1719 l-1.9922 0 c-0.091152 0 -0.27996 -0.75521 -0.56643 -2.2656 c-0.14322 -0.45572 -1.8685 -7.9297 -5.1758 -22.422 z"/></g>
			</g>
		</svg>
	