<?xml version="1.0" standalone="no"?>
<!DOCTYPE svg PUBLIC "-//W3C//DTD SVG 20010904//EN"
 "http://www.w3.org/TR/2001/REC-SVG-20010904/DTD/svg10.dtd">
<svg version="1.0" xmlns="http://www.w3.org/2000/svg"
 width="88.000000pt" height="80.000000pt" viewBox="0 0 88.000000 80.000000"
 preserveAspectRatio="xMidYMid meet">
<metadata>
Created by potrace 1.10, written by Peter Selinger 2001-2011
</metadata>
<g transform="translate(0.000000,80.000000) scale(0.100000,-0.100000)"
fill="#000000" stroke="none">
<path d="M450 692 c0 -87 -10 -113 -34 -93 -9 8 -18 39 -22 83 -7 69 -7 69
-33 63 -106 -26 -214 -115 -258 -213 -20 -44 -27 -78 -31 -149 l-4 -93 69 0
c165 0 341 -96 398 -215 14 -30 32 -55 40 -55 18 0 18 -2 4 76 -14 80 0 177
37 252 18 36 57 84 111 137 l84 83 -67 60 c-75 69 -125 97 -224 122 l-70 18 0
-76z m162 -23 c52 -26 108 -78 108 -98 0 -10 -10 -26 -21 -37 -63 -56 -169
-242 -169 -296 0 -15 -4 -29 -8 -32 -4 -2 -46 18 -92 45 -90 52 -149 73 -240
84 -65 9 -80 19 -79 54 0 39 39 133 76 186 28 38 112 105 133 105 3 0 18 -25
33 -55 16 -33 37 -60 52 -67 22 -10 29 -8 55 17 18 17 32 43 36 64 10 62 11
63 46 56 18 -4 50 -16 70 -26z"/>
</g>
</svg>
